<svg width="271" height="254" viewBox="0 0 271 254" fill="none" xmlns="http://www.w3.org/2000/svg">
<path d="M171.318 150.357C170.936 152.328 170.173 154.236 169.156 155.635C164.831 161.866 153.894 169.434 146.2 166.254C142.193 164.601 139.713 159.132 142.193 155.571C143.974 152.964 147.471 152.201 150.079 150.42C154.657 147.241 156.628 140.754 161.906 138.974C170.364 136.049 172.717 143.743 171.318 150.357Z" fill="#E0ADAD"/>
<path d="M31.8011 141.772C31.8011 142.217 31.8011 142.662 31.6103 143.107C31.2288 144.379 30.275 145.397 29.3211 146.35C25.5057 150.166 11.7067 165.809 8.59077 153.472C6.93743 146.732 16.2216 137.702 22.0718 136.558C24.3611 136.112 26.8411 136.176 28.876 137.321C30.5293 138.211 31.6739 139.928 31.8011 141.772Z" fill="#E0ADAD"/>
<path d="M195.355 212.102C193.511 213.31 191.476 214.201 189.695 215.409C187.597 216.872 184.099 220.115 181.301 219.542C179.076 219.097 177.613 216.172 177.804 214.137C177.995 212.039 179.266 210.258 180.793 208.859C182.319 207.46 184.163 206.443 185.816 205.235C187.152 204.281 188.423 203.2 189.886 202.437C191.539 201.61 193.32 201.228 195.164 201.292C196.626 201.356 198.153 201.737 199.17 202.818C200.315 204.09 200.378 206.061 199.679 207.587C198.979 209.114 197.707 210.385 196.372 211.339C196.054 211.657 195.673 211.911 195.355 212.102Z" fill="#E0ADAD"/>
<path d="M88.7778 60.5675C88.6506 60.6946 88.4598 60.8854 88.3327 61.0126C86.6157 62.7931 84.8352 64.6372 82.546 65.5275C80.2567 66.4177 77.268 66.0998 75.7418 64.1285C75.2331 63.4926 74.9788 62.7295 74.788 61.9664C74.0885 58.5962 76.187 55.1623 78.7942 52.9367C82.2916 49.8843 86.3614 47.7859 90.0496 44.7971C92.2752 43.0166 94.8188 41.4269 97.6804 41.2361C100.542 41.0453 103.658 42.6987 104.357 45.433C104.866 47.4679 103.976 49.6936 102.577 51.2197C101.178 52.8095 99.2701 53.8269 97.426 54.8444C94.3737 56.6249 91.3214 58.0874 88.7778 60.5675Z" fill="#E0ADAD"/>
<path d="M197.962 9.63182C196.817 8.4872 196.817 6.5795 197.962 5.43488C199.106 4.29026 201.014 4.29026 202.159 5.43488" fill="black"/>
<path d="M257.736 71.4413C257.736 73.0946 256.401 74.43 254.748 74.43C253.094 74.43 251.759 73.0946 251.759 71.4413C251.759 69.7879 253.094 68.4525 254.748 68.4525C256.401 68.3889 257.736 69.7879 257.736 71.4413Z" stroke="black" stroke-width="0.31795" stroke-miterlimit="10"/>
<path d="M140.602 121.937C142.36 119.226 141.586 115.604 138.875 113.846C136.164 112.089 132.542 112.862 130.784 115.573C129.027 118.284 129.8 121.907 132.511 123.664C135.222 125.421 138.845 124.648 140.602 121.937Z" stroke="black" stroke-width="0.31795" stroke-miterlimit="10"/>
<path d="M123.879 120.914C124.96 120.406 126.232 120.914 126.741 121.932C127.25 123.013 126.741 124.285 125.724 124.793C124.643 125.302 123.371 124.793 122.862 123.776C122.353 122.631 122.798 121.423 123.879 120.914Z" fill="black"/>
<path d="M34.0904 55.4803C35.1714 54.9716 36.4432 55.4803 36.9519 56.4978C37.4606 57.5788 36.9519 58.8506 35.9345 59.3593C34.8535 59.868 33.5817 59.3593 33.0729 58.3419C32.5642 57.1973 33.0093 55.9255 34.0904 55.4803Z" fill="black"/>
<path d="M207.246 3.01855L191.094 19.1704" stroke="black" stroke-width="0.31795" stroke-miterlimit="10"/>
<path d="M213.669 0.28418L197.517 16.436" stroke="black" stroke-width="0.31795" stroke-miterlimit="10"/>
<path d="M270.136 66.0999L254.748 81.425" stroke="black" stroke-width="0.31795" stroke-miterlimit="10"/>
<path d="M155.547 157.352L140.222 172.677" stroke="black" stroke-width="0.31795" stroke-miterlimit="10"/>
<path d="M40.7037 68.7069L43.6289 62.9202L47.6986 68.7069L50.8781 62.9202L54.1212 68.7069L57.4915 62.9202L60.9889 68.7069L64.1048 62.9202" stroke="black" stroke-width="0.31795" stroke-miterlimit="10"/>
<path d="M97.1081 71.0598L126.232 65.5911L114.023 87.6568L105.438 78.1183L103.149 82.3788L101.559 74.6208L97.1081 71.0598Z" fill="#FEE99E" stroke="black" stroke-width="0.31795" stroke-miterlimit="10"/>
<path d="M121.845 68.707L105.438 78.1184L104.357 86.0035L99.3973 82.7604L101.559 74.6209L121.845 68.707Z" fill="black"/>
<path d="M110.462 252.737L121.399 172.613C121.399 172.359 121.781 172.359 121.845 172.613L133.736 252.737" stroke="#E0ADAD" stroke-width="1.9077" stroke-miterlimit="10"/>
<path d="M51.0689 252.355L64.232 199.194L82.4824 252.673" stroke="#E0ADAD" stroke-width="1.9077" stroke-miterlimit="10"/>
<path d="M99.5881 164.728C99.4609 161.167 99.6517 157.606 100.669 154.172C101.241 152.264 102.322 149.593 104.103 148.512C106.011 147.368 108.999 147.876 110.78 149.085C113.133 150.674 114.341 153.599 114.468 156.397C114.913 164.028 111.734 172.041 109.89 179.353C109.508 180.88 108.999 182.596 107.728 183.55C106.011 184.886 103.531 184.441 101.623 183.487C101.178 183.232 100.669 182.978 100.351 182.533C99.8424 181.833 99.906 180.943 99.9696 180.053C100.097 178.209 100.097 176.428 100.097 174.584C100.033 171.277 99.7152 167.971 99.5881 164.728Z" fill="white" stroke="#222221" stroke-width="0.31795" stroke-miterlimit="10"/>
<path d="M106.074 175.665C104.23 175.284 102.386 174.775 100.542 174.266C100.415 174.203 100.224 174.203 100.097 174.139C100.097 174.266 100.097 174.394 100.097 174.584C100.16 176.428 100.097 178.209 99.9696 180.053C99.906 180.88 99.8425 181.834 100.351 182.533C100.669 182.978 101.114 183.233 101.623 183.487C103.531 184.441 106.011 184.886 107.728 183.55C108.999 182.597 109.445 180.88 109.89 179.354C110.144 178.4 110.398 177.446 110.653 176.428C109.127 176.238 107.6 175.983 106.074 175.665Z" fill="#007CFF" stroke="black" stroke-width="0.31795" stroke-miterlimit="10"/>
<path d="M107.282 213.12C109.89 212.484 109.699 212.039 112.242 211.148C112.242 222.785 115.358 242.753 115.295 246.059C112.052 246.314 110.335 249.112 107.028 249.048C104.421 244.915 102.259 234.168 100.796 229.717C100.478 228.699 102.195 219.733 100.542 213.883C103.849 213.31 104.103 213.883 107.282 213.12Z" fill="white" stroke="#222221" stroke-width="0.31795" stroke-miterlimit="10"/>
<path d="M111.098 236.394C108.427 236.839 105.756 237.348 103.086 237.666C104.23 241.99 105.629 246.632 107.155 249.048C110.462 249.175 112.179 246.314 115.422 246.059C115.422 244.724 114.977 240.845 114.405 235.885C113.26 236.012 112.179 236.203 111.098 236.394Z" fill="#007CFF" stroke="black" stroke-width="0.31795" stroke-miterlimit="10"/>
<path d="M46.2997 201.483C48.3982 202.246 50.5602 202.882 52.7223 203.454C56.9192 203.772 61.1798 203.899 65.4403 203.836C72.0537 203.772 78.7942 203.518 85.2804 202.309C88.5235 201.737 91.703 200.847 94.7553 199.511C97.2989 198.43 100.16 196.968 101.941 194.742C103.404 192.962 104.739 190.037 104.993 187.302C102.45 179.29 95.2004 178.145 88.7142 174.457C81.6557 170.451 75.6783 164.664 71.4813 157.733C67.6024 151.31 65.3131 144.125 62.1972 137.32C59.2721 130.961 55.5203 127.718 48.8433 125.366C43.8833 123.649 38.4781 122.44 33.5181 124.094C26.5232 126.574 22.3899 133.887 21.1817 141.072C19.3376 152.201 20.6094 165.872 24.1068 176.619C27.4135 186.857 35.871 197.795 46.2997 201.483Z" fill="#007CFF" stroke="black" stroke-width="0.31795" stroke-miterlimit="10"/>
<path d="M63.9141 191.626C66.0762 191.754 68.3018 191.944 70.4639 192.262C72.3716 192.517 74.3429 192.771 75.9962 193.852C76.3778 194.106 76.7593 194.424 76.6957 194.869C76.6321 195.251 76.3142 195.505 75.9326 195.696C73.0075 197.349 68.8106 199.066 65.3131 198.685C62.2608 198.303 58.6997 198.494 55.7746 197.54C54.312 197.032 52.8495 196.268 52.0228 194.997C51.3869 194.043 50.8782 191.817 52.2772 191.181C53.231 190.8 56.0926 191.499 57.1736 191.499C59.4628 191.436 61.6885 191.499 63.9141 191.626Z" fill="#222221"/>
<path d="M115.04 163.774C114.214 167.271 113.387 171.087 112.433 174.521C107.855 173.567 103.213 172.359 98.5706 171.405C96.2178 170.896 96.1542 174.648 95.2004 176.11C94.2465 177.573 92.9747 178.718 91.6393 179.799C88.905 182.024 84.708 182.851 81.2106 182.787C77.0772 182.724 72.7531 180.816 70.909 177.064C69.4464 174.075 69.828 170.451 70.7182 167.208C73.9613 155.316 82.7367 145.778 92.0845 137.766C96.7265 133.823 102.513 130.898 108.681 133.06C118.665 136.557 118.284 147.94 116.567 156.525C116.058 158.941 115.549 161.357 115.04 163.774Z" fill="#7696EA" stroke="black" stroke-width="0.31795" stroke-miterlimit="10"/>
<path d="M111.225 139.928C113.069 139.928 114.786 138.656 115.804 137.066C116.058 136.621 116.312 136.049 116.376 135.54C116.503 134.65 116.121 133.696 115.613 132.933C114.023 130.262 109.635 127.146 107.473 130.962C105.693 134.205 106.774 139.864 111.225 139.928Z" fill="#222221"/>
<path d="M101.051 188.701C104.866 189.592 108.745 189.973 112.56 190.545C114.595 190.863 118.729 192.008 120.636 190.609C123.053 188.828 119.11 187.747 117.33 186.794C114.277 185.077 111.098 183.423 108.046 181.77C105.184 180.244 101.496 176.937 98.5707 180.117C96.663 182.152 96.4722 185.458 96.2814 188.065C97.8712 188.065 99.4609 188.32 101.051 188.701Z" fill="#222221"/>
<path d="M39.5592 175.029C40.4494 171.278 44.2648 171.341 49.1613 171.786C54.4392 172.295 59.7172 171.659 64.9952 171.341C74.3429 170.769 83.6906 171.278 93.0384 171.786C96.663 171.977 100.478 172.231 103.658 174.012C106.837 175.856 109.063 179.099 110.335 182.533C111.607 185.967 112.052 189.655 112.497 193.343C113.642 203.009 114.786 212.675 115.931 222.34C116.249 224.82 116.567 227.237 116.821 229.717C117.075 232.515 116.948 232.451 114.15 232.896C109.445 233.596 104.803 234.232 100.097 234.868C98.062 226.664 95.9635 218.461 95.0096 210.068C94.8825 208.923 92.5296 194.997 92.1481 195.06C83.8178 196.396 75.2968 196.714 66.8393 196.014C60.8618 195.505 54.8208 194.488 49.6064 191.563C45.0279 188.956 40.3223 184.123 39.5592 178.718C39.3048 177.191 39.3684 175.983 39.5592 175.029Z" fill="#7696EA" stroke="black" stroke-width="0.31795" stroke-miterlimit="10"/>
<path d="M107.791 252.8C107.855 252.8 107.918 252.863 107.982 252.863H110.78C116.757 252.482 122.735 252.927 128.712 252.482C129.539 252.418 130.429 252.291 131.129 251.782C132.655 250.574 131.32 248.794 129.921 248.221C124.961 246.25 118.538 246.568 115.231 241.672C112.052 243.516 108.681 245.042 105.184 246.25C105.566 246.123 105.82 249.175 105.884 249.493C106.201 250.638 106.71 252.291 107.791 252.8Z" fill="#222221"/>
<path d="M52.2771 112.266C50.1786 112.584 48.0802 113.093 46.1725 114.047C43.5017 115.318 41.2124 117.163 39.2412 119.388C36.0617 123.013 34.7899 127.846 33.7088 132.424C32.3098 138.274 30.9109 144.188 29.5755 150.039C29.2575 151.438 28.9396 152.837 28.876 154.236C28.8124 156.525 29.4483 159.386 30.0206 161.612C30.275 162.693 30.6565 163.329 31.2288 163.647C33.5817 165.3 35.5529 167.462 36.5068 170.197C36.8247 171.087 37.1427 171.977 37.4606 172.931C37.8422 173.948 38.0329 174.648 38.2873 175.157C39.8135 175.157 41.3396 175.157 42.8658 175.157C48.0802 175.157 52.7222 175.22 57.6823 173.758C62.7059 172.295 68.111 172.549 73.1982 171.214C73.5798 171.087 74.0249 170.96 74.2156 170.578C74.4064 170.069 74.2792 168.734 74.3428 168.162C74.4064 166.89 74.47 165.555 74.5336 164.283C74.5972 161.739 74.5336 159.259 74.5336 156.716C74.47 151.819 74.2792 146.859 74.5972 141.963C74.9151 138.465 75.0423 134.904 75.1059 131.407C80.2567 131.152 85.4711 130.198 90.5583 129.563C95.0096 128.99 99.3973 128.672 102.513 125.048C102.831 124.666 103.149 124.221 103.403 123.712C105.629 119.388 102.386 114.555 97.8711 113.792C96.9809 113.602 96.027 113.602 95.1367 113.602C87.7603 113.602 80.4475 113.347 73.071 113.029C68.9377 112.838 66.0761 112.966 62.07 112.139C58.6361 111.567 55.5838 112.266 52.2771 112.266Z" fill="#FCA351" stroke="black" stroke-width="0.31795" stroke-miterlimit="10"/>
<path d="M93.1019 116.781C93.2927 113.856 94.1829 110.803 94.8188 108.069C95.7727 103.999 96.8537 99.9931 97.6804 95.9233C98.3799 92.3623 98.825 88.6741 98.6978 85.0495C98.5707 82.2515 99.3337 79.3264 101.241 77.2279C101.559 76.9099 101.877 76.592 102.259 76.4012C102.704 76.2105 103.213 76.2104 103.721 76.2104C104.993 76.274 106.074 76.4648 107.282 76.9099C106.837 77.2279 106.392 77.4822 105.947 77.8002C105.566 78.0546 105.502 78.1181 105.82 78.4361C106.138 78.8176 106.647 79.1356 106.837 79.5807C107.282 80.2802 106.774 81.6792 106.519 82.4423C106.201 83.4597 105.693 84.4136 105.057 85.3038C104.802 85.6218 104.612 85.9397 104.485 86.3213C104.421 86.5756 104.421 86.7664 104.421 87.0207C104.357 90.0731 104.612 93.2526 105.057 96.2413C105.502 99.4844 105.82 102.791 106.011 106.098C106.011 106.67 106.074 107.242 106.074 107.815C106.265 113.347 106.265 119.007 103.276 123.776C102.831 124.475 102.322 125.175 101.687 125.747C98.0619 128.927 94.0558 123.903 93.3563 120.533C93.1019 119.324 93.0383 118.053 93.1019 116.781Z" fill="white" stroke="#222221" stroke-width="0.31795" stroke-miterlimit="10"/>
<path d="M51.832 129.499C51.0053 130.516 50.1786 131.47 49.7335 132.679C49.4791 133.378 49.352 134.077 49.2248 134.841C47.8894 142.153 46.6812 149.593 44.7099 156.779" stroke="#131834" stroke-width="0.31795" stroke-miterlimit="10"/>
<path d="M100.987 143.234C99.2065 150.802 95.2004 162.248 95.1368 170.006" stroke="#131834" stroke-width="0.31795" stroke-miterlimit="10"/>
<path d="M22.3263 168.607C34.9807 165.745 49.2884 163.392 60.7346 168.734C68.1747 172.231 73.1983 178.717 74.5973 185.649C75.9962 192.58 74.8516 195.887 70.5911 201.991" stroke="black" stroke-width="1.9077" stroke-miterlimit="10"/>
<path d="M28.4945 190.927C30.4658 196.268 34.9806 200.338 40.5766 201.61H40.6401C48.7797 203.518 57.11 203.899 65.4402 203.836C69.5736 203.836 73.7705 203.708 77.9039 203.327C77.0136 202.945 76.1234 202.564 75.2331 202.119C67.5387 198.367 59.9715 194.043 53.4217 188.447C47.3171 183.296 41.8484 177.319 37.5242 170.578C35.4258 167.335 33.7088 163.901 32.0555 160.404C30.4658 157.097 28.876 153.79 27.477 150.42C25.4421 145.714 23.4709 140.5 22.8985 135.286C22.1355 137.13 21.6267 139.101 21.2452 141.072C19.4011 152.201 20.6729 165.872 24.1703 176.619C25.5693 181.07 26.7139 186.221 28.4945 190.927Z" fill="#007CFF" stroke="black" stroke-width="0.31795" stroke-miterlimit="10"/>
<path d="M95.3276 172.549C87.188 171.278 81.9101 172.422 71.4177 172.422" stroke="#131834" stroke-width="0.31795" stroke-miterlimit="10"/>
<path d="M76.6321 168.098C73.9613 166.763 71.1634 165.682 68.2382 164.855C66.9028 164.474 65.5675 164.156 64.2321 163.647C62.7695 163.075 61.4341 162.248 60.0351 161.421C57.3643 159.768 54.6936 158.178 52.0864 156.525C49.9243 155.189 47.7623 153.918 45.5366 152.773C44.392 152.201 43.1838 151.692 41.9756 151.247C38.6689 150.102 32.8822 148.64 30.0842 151.438C29.5119 152.01 29.0668 152.646 28.8124 153.345C30.275 156.461 31.7376 159.641 33.3273 162.693C34.2812 163.202 35.2986 163.583 36.3161 163.901C40.4494 165.237 44.7735 165.809 49.0976 166.318C53.3582 166.826 57.7459 167.144 61.4977 169.37C65.631 171.85 71.3541 171.85 75.9962 170.833C76.8229 170.642 77.8403 170.133 77.7767 169.306C77.7767 168.734 77.2044 168.353 76.6321 168.098Z" fill="white" stroke="#222221" stroke-width="0.31795" stroke-miterlimit="10"/>
<path d="M11.2616 252.737L22.7078 172.613C22.7078 172.359 23.0893 172.359 23.1529 172.613L35.6166 252.737" stroke="#E0ADAD" stroke-width="1.9077" stroke-miterlimit="10"/>
<path d="M128.967 170.133H15.6493V173.631H128.967V170.133Z" fill="#E0ADAD"/>
<path d="M129.857 170.133H14.8226" stroke="#131834" stroke-width="0.31795" stroke-miterlimit="10"/>
<path d="M21.436 173.567H25.6329" stroke="#131834" stroke-width="0.31795" stroke-miterlimit="10"/>
<path d="M119.555 173.567H123.752" stroke="#131834" stroke-width="0.31795" stroke-miterlimit="10"/>
<path d="M125.024 168.098H73.389C72.8803 168.098 72.4352 168.416 72.4352 168.861V169.561C72.4352 170.006 72.8803 170.324 73.389 170.324H125.024V168.098Z" fill="black"/>
<path d="M124.961 169.752H79.8116L83.7542 143.807C83.8814 142.917 84.6445 142.217 85.5347 142.217H127.123C128.204 142.217 129.03 143.171 128.84 144.252L124.961 169.752Z" fill="white" stroke="#222221" stroke-width="0.31795" stroke-miterlimit="10"/>
<path d="M108.236 155.189L110.208 156.843" stroke="#131834" stroke-width="0.31795" stroke-miterlimit="10"/>
<path d="M105.693 155.189L107.664 156.843" stroke="#131834" stroke-width="0.31795" stroke-miterlimit="10"/>
<path d="M103.086 155.189L105.057 156.843" stroke="#131834" stroke-width="0.31795" stroke-miterlimit="10"/>
<path d="M69.3192 91.2814C68.429 89.3737 66.6485 91.5358 64.55 91.2814C62.7695 91.027 61.3705 90.7727 59.6536 91.4086C58.1274 91.9809 56.7284 93.1255 55.9653 94.5881C55.7746 94.9696 55.5838 95.4148 55.4566 95.7963C55.1387 97.0045 54.8843 98.2763 54.7571 99.5481C54.6299 100.629 54.7571 101.647 54.8207 102.664C54.8843 103.109 54.9479 103.554 55.0115 103.936C55.0115 106.034 55.1387 108.006 54.2484 110.104C53.8669 111.058 53.2946 111.948 52.5951 112.711C52.3407 113.093 51.9592 113.411 51.514 113.665C51.6412 113.729 51.7684 113.856 51.832 113.983C53.8669 116.59 57.873 116.908 60.9254 116.654C62.3879 116.527 64.1684 116.209 65.6946 115.509C64.4864 113.729 64.9951 111.757 65.5038 109.468C65.5674 109.277 65.8218 108.578 66.0126 107.815C66.8392 107.37 67.6023 106.734 68.1746 105.78C69.0013 104.508 69.3828 103.046 69.7008 101.583C70.1459 99.2937 70.2731 93.3163 69.3192 91.2814Z" fill="white" stroke="#222221" stroke-width="0.31795" stroke-miterlimit="10"/>
<path d="M56.2833 102.41C56.4741 101.456 56.5377 100.438 56.9192 99.5481C57.3643 98.5942 58.3182 98.4035 58.8269 97.5768C59.8444 95.8599 59.7808 93.7614 61.9428 92.8075C64.1685 91.7901 66.9028 93.2527 69.1285 92.3624C70.5911 91.8537 71.6085 90.3275 71.6085 88.8014C71.6085 87.9747 71.3541 87.2116 71.0362 86.4485C70.6546 85.5583 70.2095 84.668 69.3829 84.0957C68.3018 83.3326 66.8393 83.269 65.5675 83.5234C64.2321 83.7778 62.9603 84.2229 61.6249 84.2229C59.9079 84.2229 58.2546 83.587 56.6013 83.905C55.0115 84.1593 53.6761 85.3675 53.1674 86.8937C52.7223 88.2927 52.6587 89.6916 51.7684 90.8998C50.8782 92.2352 49.9879 93.3163 49.9243 94.9696C49.9243 96.3686 50.9418 97.6404 51.4505 98.9122C51.8956 99.9932 52.15 101.201 52.6587 102.282C53.1674 103.363 54.1213 104.381 55.3295 104.445C55.5202 104.445 55.711 104.445 55.8382 104.317C56.1561 104.127 56.1561 103.681 56.0925 103.3C56.0925 103.363 56.1561 102.982 56.2833 102.41Z" fill="black"/>
<path d="M61.5613 107.561C61.6249 107.561 61.752 107.624 61.8156 107.624C63.469 107.942 65.2495 108.006 66.8392 107.433C67.2844 107.497 67.2208 107.878 67.1572 108.514C67.03 109.405 66.9664 110.358 66.9028 111.249C65.0587 109.977 63.2782 108.769 61.4341 107.497C61.4977 107.561 61.5613 107.561 61.5613 107.561Z" fill="#222221"/>
<path d="M63.151 102.728C63.5325 103.491 64.2956 103.999 65.1223 103.999C65.8854 103.999 66.6485 103.554 67.0936 102.855L63.151 102.728Z" stroke="#222221" stroke-width="0.31795" stroke-miterlimit="10"/>
<path d="M59.0813 99.6116C58.6997 97.7675 56.792 96.2413 54.8843 97.068C53.0402 97.8311 52.4043 100.82 53.6761 102.346C54.3756 103.109 55.4566 103.491 56.4741 103.236" fill="white"/>
<path d="M59.0813 99.6116C58.6997 97.7675 56.792 96.2413 54.8843 97.068C53.0402 97.8311 52.4043 100.82 53.6761 102.346C54.3756 103.109 55.4566 103.491 56.4741 103.236" stroke="#222221" stroke-width="0.31795" stroke-miterlimit="10"/>
<path d="M55.6474 98.8485C56.2197 98.7849 56.8556 99.0393 57.2371 99.4844C57.6187 99.9296 57.7459 100.629 57.5551 101.138" stroke="#222221" stroke-width="0.31795" stroke-miterlimit="10"/>
<path d="M102.831 83.0146C103.276 83.269 104.23 83.0146 104.612 82.8874C105.12 82.6967 105.629 82.3787 106.011 81.9336C106.71 81.1069 106.456 80.0895 106.011 79.1992C105.248 80.0259 104.357 80.789 103.404 81.4885C103.149 81.6792 102.831 81.87 102.704 82.1879C102.45 82.5695 102.577 82.8874 102.831 83.0146Z" fill="white"/>
<path d="M103.276 81.3614C103.213 81.3614 103.086 81.425 103.022 81.425C102.768 80.7255 102.768 80.026 102.577 79.3265C102.45 78.7542 102.322 78.1819 102.195 77.546C102.068 76.9737 101.941 76.4014 101.814 75.8291C101.75 75.4475 101.432 74.6844 101.814 74.4301C101.941 74.3665 102.068 74.3029 102.195 74.3029C102.958 74.1757 103.785 74.0485 104.612 74.1121C105.438 74.1757 106.201 74.4301 106.837 74.9388C107.219 75.2568 107.537 75.7019 107.473 76.2106C107.41 76.7193 106.965 77.1009 106.519 77.4188C106.201 77.6096 105.884 77.8639 105.629 78.1183C105.566 78.1819 105.947 78.627 105.947 78.7542C105.947 79.0086 105.375 79.5173 105.184 79.708C104.675 80.3439 104.039 81.107 103.276 81.3614Z" fill="black"/>
<path d="M105.947 78.6904C105.248 79.8986 104.039 80.9797 102.895 81.552" stroke="#222221" stroke-width="0.31795" stroke-miterlimit="10"/>
<path d="M74.9788 131.852C75.1695 130.644 75.2967 129.372 75.4875 128.164L74.9788 131.852Z" fill="#FCA351"/>
<path d="M74.9788 131.852C75.1695 130.644 75.2967 129.372 75.4875 128.164" stroke="black" stroke-width="0.31795" stroke-miterlimit="10"/>
<path d="M66.5213 112.902C66.0126 112.775 65.4403 112.648 64.9315 112.457C64.9315 113.792 64.3592 114.937 63.2146 115.636C62.0064 116.336 60.4167 116.399 59.0813 116.272C56.6013 116.018 53.3582 114.555 52.2136 112.139C51.4505 112.393 50.6238 112.648 49.8607 112.775C50.5602 114.047 51.2597 115.191 52.4043 116.081C53.1038 116.59 53.8033 117.035 54.5664 117.417C56.1561 118.18 57.8731 118.625 59.6536 118.689C61.4341 118.752 63.4054 118.434 64.868 117.417C66.2033 116.463 66.9664 114.683 66.9664 113.029C66.7757 112.966 66.6485 112.966 66.5213 112.902Z" fill="black"/>
<path d="M101.941 177.955C102.259 179.671 103.404 181.388 105.12 181.897C109.572 183.296 112.815 177.827 109.826 174.457C107.219 171.468 101.114 173.63 101.941 177.955Z" fill="#222221"/>
<path d="M92.3388 195.188C91.9573 192.962 91.5758 190.673 91.3214 188.447C90.8763 190.863 90.3676 193.216 89.9224 195.633C90.7491 195.506 91.5122 195.315 92.3388 195.188Z" fill="#222221"/>
<path d="M95.5819 102.092C95.5819 102.092 95.5819 102.155 95.5183 102.155L95.5819 102.092Z" fill="black"/>
<path d="M267.911 131.025C267.847 130.707 267.784 130.389 267.72 130.135C267.211 128.482 265.749 127.274 264.095 126.828C262.442 126.383 260.661 126.638 259.072 127.337C256.973 128.291 255.32 129.944 253.476 131.28C250.423 133.442 247.117 134.65 244.955 137.829C242.666 141.263 240.821 144.824 240.122 148.894C240.058 149.212 240.058 149.466 239.995 149.784C240.122 148.703 241.966 147.05 242.666 146.414C243.683 145.333 244.891 144.443 246.099 143.68C248.834 142.026 251.759 141.263 254.875 141.009C260.344 140.5 264.668 140.119 267.275 134.714C267.784 133.442 268.038 132.234 267.911 131.025Z" fill="#FEE99E" stroke="black" stroke-width="0.31795" stroke-miterlimit="10"/>
<path d="M255.384 135.222C250.487 137.321 245.527 140.055 242.475 144.57C239.105 149.53 237.896 154.808 237.388 160.722C236.942 165.173 236.561 169.688 236.116 174.139" stroke="black" stroke-width="0.31795" stroke-miterlimit="10"/>
<path d="M246.926 104.953C244.764 103.681 241.775 103.681 239.486 104.826C236.37 106.352 234.335 109.532 233.318 112.838C232.3 116.145 232.173 119.643 231.855 123.14C231.283 129.944 230.202 136.812 230.838 143.616C231.092 146.795 231.982 149.848 232.555 152.964C232.746 154.045 233.318 158.623 234.717 158.687C235.162 158.687 235.543 158.432 235.734 158.051C235.798 157.86 236.052 157.86 236.243 157.924C236.497 157.987 236.752 157.987 237.006 157.86C237.388 157.606 237.642 157.224 237.833 156.779C240.631 150.738 242.983 144.443 244.764 138.02C245.591 135.159 246.417 132.297 246.545 129.372C246.672 126.383 246.99 123.331 247.816 120.406C248.452 118.116 249.47 115.891 249.915 113.538C250.36 111.185 250.296 108.578 248.897 106.607C248.325 105.907 247.689 105.335 246.926 104.953Z" fill="#FEE99E" stroke="black" stroke-width="0.31795" stroke-miterlimit="10"/>
<path d="M239.613 123.649L234.081 173.313" stroke="#1C0C03" stroke-width="0.31795" stroke-miterlimit="10"/>
<path d="M228.358 143.998C226.514 138.656 222.508 134.586 217.293 134.205C215.449 134.078 213.541 134.205 211.697 133.887C209.917 133.569 208.136 132.869 206.356 133.187C202.477 133.95 200.76 139.292 203.113 142.344C204.321 143.934 206.356 144.824 208.327 145.142C210.298 145.46 212.333 145.333 214.368 145.397C216.912 145.46 219.519 145.905 221.808 147.05C225.56 148.958 227.658 153.791 228.994 157.606C229.439 158.751 229.82 159.577 229.884 161.485C229.63 160.468 230.011 158.56 230.011 157.479C230.011 156.016 230.011 154.554 229.948 153.155C229.82 150.42 229.502 147.622 228.739 145.015C228.549 144.697 228.421 144.379 228.358 143.998Z" fill="#FCA351" stroke="black" stroke-width="0.31795" stroke-miterlimit="10"/>
<path d="M230.265 171.341C229.948 167.907 229.82 157.097 228.994 153.79C228.231 150.675 227.15 147.559 225.242 145.079C223.334 142.599 220.536 140.818 217.675 141.009" stroke="#1C0C03" stroke-width="0.31795" stroke-miterlimit="10"/>
<path d="M224.161 164.982H244.637L243.429 174.139C242.793 179.099 238.977 182.787 234.462 182.787C230.011 182.787 226.196 179.163 225.496 174.203L224.161 164.982Z" fill="#E0ADAD"/>
<path d="M203.303 253.054V182.851H259.072V253.054" stroke="#222221" stroke-width="0.31795" stroke-miterlimit="10"/>
<path d="M199.488 201.038H263.587" stroke="#222221" stroke-width="0.31795" stroke-miterlimit="10"/>
<path d="M199.488 219.161H263.587" stroke="#222221" stroke-width="0.31795" stroke-miterlimit="10"/>
<path d="M199.488 237.348H263.587" stroke="#222221" stroke-width="0.31795" stroke-miterlimit="10"/>
<path d="M233.827 189.91C233.827 191.436 232.618 192.644 231.092 192.644C229.566 192.644 228.358 191.436 228.358 189.91C228.358 188.383 229.566 187.175 231.092 187.175C232.555 187.175 233.827 188.383 233.827 189.91Z" stroke="#222221" stroke-width="0.31795" stroke-miterlimit="10"/>
<path d="M233.827 208.669C233.827 210.195 232.618 211.403 231.092 211.403C229.566 211.403 228.358 210.195 228.358 208.669C228.358 207.143 229.566 205.934 231.092 205.934C232.555 205.934 233.827 207.143 233.827 208.669Z" stroke="#222221" stroke-width="0.31795" stroke-miterlimit="10"/>
<path d="M233.827 227.491C233.827 229.017 232.618 230.226 231.092 230.226C229.566 230.226 228.358 229.017 228.358 227.491C228.358 225.965 229.566 224.757 231.092 224.757C232.555 224.693 233.827 225.965 233.827 227.491Z" stroke="#222221" stroke-width="0.31795" stroke-miterlimit="10"/>
<path d="M233.827 246.25C233.827 247.776 232.618 248.985 231.092 248.985C229.566 248.985 228.358 247.776 228.358 246.25C228.358 244.724 229.566 243.516 231.092 243.516C232.555 243.452 233.827 244.724 233.827 246.25Z" stroke="#222221" stroke-width="0.31795" stroke-miterlimit="10"/>
<path d="M233.827 189.909C233.827 191.436 232.618 192.644 231.092 192.644C229.566 192.644 228.358 191.436 228.358 189.909" fill="#161111"/>
<path d="M233.827 208.668C233.827 210.195 232.618 211.403 231.092 211.403C229.566 211.403 228.358 210.195 228.358 208.668" fill="#161111"/>
<path d="M233.827 227.491C233.827 229.017 232.618 230.226 231.092 230.226C229.566 230.226 228.358 229.017 228.358 227.491" fill="#161111"/>
<path d="M233.827 246.25C233.827 247.776 232.618 248.985 231.092 248.985C229.566 248.985 228.358 247.776 228.358 246.25" fill="#161111"/>
<path d="M71.99 9.18677C88.0147 9.18677 101.051 15.2278 101.051 22.6678C101.051 27.0556 96.7901 30.1079 93.229 31.8248C90.5583 33.1602 87.6331 34.114 84.708 34.7499C80.7654 35.6402 76.6321 36.1489 72.4987 36.2125C72.1172 40.5366 70.4003 44.7336 67.5387 48.0402C66.4577 49.2485 65.1223 50.4567 63.4689 50.6474C66.1397 46.3233 67.4115 41.1725 67.1572 36.0853C61.9428 35.7038 56.7284 34.4956 52.0227 32.4607C48.0802 30.7438 42.9294 27.5643 42.9294 22.6678C42.9294 15.2278 55.9653 9.18677 71.99 9.18677Z" fill="#7696EA" stroke="black" stroke-width="0.31795" stroke-miterlimit="10"/>
<path d="M92.0844 21.6504C91.8301 24.0668 89.668 26.0381 87.3152 26.0381C85.026 26.0381 82.8639 23.9397 82.6731 21.5232C82.6095 20.633 82.8639 19.552 83.627 19.1704C84.4536 18.7889 85.4075 19.4248 85.7254 20.2514C86.0434 21.0781 85.9162 22.032 85.5347 22.9222C84.4536 25.4658 81.7829 27.1192 79.1121 26.8012C76.5049 26.4833 74.1521 24.2576 73.6433 21.5232C73.4526 20.5694 73.5798 19.4884 74.3428 18.9161C75.2967 18.2802 76.6321 19.0432 76.95 20.1879C77.268 21.3325 76.8228 22.5407 76.1234 23.4309C74.7244 25.4022 72.308 26.3561 70.0187 26.2925C69.0013 26.2289 67.6659 25.9745 66.7756 25.4022C65.5038 24.512 64.232 21.5868 65.2495 20.0607C65.4402 19.7427 65.7582 19.552 66.0761 19.552C66.3305 19.552 66.5213 19.6791 66.712 19.8699C67.1572 20.2515 67.3479 20.9509 67.4115 21.5232C67.4751 22.795 66.712 24.2576 65.949 25.2115C64.4228 26.992 61.8156 27.5007 59.7807 26.5469C57.6823 25.6566 56.2833 23.4309 56.0289 21.0781C55.9653 20.1879 56.2833 19.0432 57.1735 19.0432C57.8094 19.1068 58.191 19.8063 58.3182 20.4422C58.6997 22.2863 58.1274 24.3212 56.8556 25.6566C55.5838 26.992 53.6761 27.5643 51.8956 27.1828" stroke="black" stroke-width="0.31795" stroke-miterlimit="10"/>
<path d="M258.563 12.4934H232.491V53.191H258.563V12.4934Z" fill="#FEE99E" stroke="black" stroke-width="0.31795" stroke-miterlimit="10"/>
<path d="M258.563 58.8505H232.491V8.55078H258.563V58.8505Z" stroke="#3A434B" stroke-width="0.31795" stroke-miterlimit="10"/>
<path d="M247.117 55.8617C247.117 56.8156 246.417 57.5786 245.527 57.5786C244.637 57.5786 243.937 56.8156 243.937 55.8617C243.937 54.9079 244.637 54.1448 245.527 54.1448C246.417 54.1448 247.117 54.9079 247.117 55.8617Z" fill="black"/>
<path d="M244.891 20.1877C238.723 21.1416 234.526 26.9283 235.48 33.0965" stroke="#3A434B" stroke-width="0.31795" stroke-miterlimit="10"/>
<path d="M245.4 23.4944C241.076 24.1939 238.087 28.2636 238.787 32.5878" stroke="#3A434B" stroke-width="0.31795" stroke-miterlimit="10"/>
<path d="M245.782 25.9744C242.856 26.4195 240.821 29.2175 241.267 32.1426" stroke="#3A434B" stroke-width="0.31795" stroke-miterlimit="10"/>
<path d="M246.227 28.8359C244.828 29.0267 243.874 30.3621 244.128 31.7611" stroke="#3A434B" stroke-width="0.31795" stroke-miterlimit="10"/>
<path d="M243.747 42.9529C244.7 42.317 245.591 41.6175 246.417 40.8544C247.435 39.9641 248.452 39.0103 249.343 38.12C250.169 37.2298 250.932 36.4031 251.568 35.4493C252.395 34.4318 253.094 33.2872 253.857 32.1426C254.43 31.1887 255.002 30.1713 255.511 29.1538C255.765 28.6451 255.765 28.3908 255.511 27.8185C254.938 26.5467 253.476 25.72 252.077 25.2749C251.759 25.1477 251.441 25.3384 251.314 25.5928C250.805 26.801 250.169 27.9456 249.533 29.0903C249.279 29.5354 249.088 29.9169 248.834 30.3621C248.707 30.6164 248.77 30.9344 248.961 31.1251C249.597 31.6974 250.296 32.1426 251.059 32.3969C251.314 32.5241 251.441 32.7785 251.377 33.0328C251.123 33.4144 250.869 33.7959 250.551 34.1775C250.424 34.3682 250.296 34.4954 250.169 34.6226C250.106 34.6862 250.042 34.7498 249.978 34.8769C249.788 35.1313 249.597 35.3221 249.406 35.5764C249.406 35.64 249.343 35.64 249.343 35.7036C249.152 35.958 248.961 36.1487 248.77 36.4031L248.707 36.4667C248.134 37.1026 247.562 37.6749 246.926 38.2472C246.672 38.3744 246.354 38.3108 246.227 38.0564C245.845 37.357 245.273 36.7211 244.637 36.2123C244.446 36.0216 244.128 36.0216 243.874 36.2123C243.492 36.4667 243.111 36.7846 242.729 37.1026C241.712 37.8657 240.631 38.6287 239.55 39.3918C239.295 39.5826 239.168 39.9006 239.295 40.2185C239.931 41.4903 240.949 42.8257 242.284 43.2072C242.984 43.3344 243.238 43.2708 243.747 42.9529Z" fill="#007CFF" stroke="black" stroke-width="0.31795" stroke-miterlimit="10"/>
<path d="M18.5108 108.641C26.8693 108.641 33.6452 101.865 33.6452 93.507C33.6452 85.1485 26.8693 78.3726 18.5108 78.3726C10.1523 78.3726 3.3764 85.1485 3.3764 93.507C3.3764 101.865 10.1523 108.641 18.5108 108.641Z" fill="#FEE99E" stroke="black" stroke-width="0.31795" stroke-miterlimit="10"/>
<path d="M18.5108 108.641C24.8675 108.641 30.0206 101.865 30.0206 93.507C30.0206 85.1485 24.8675 78.3726 18.5108 78.3726C12.1541 78.3726 7.00104 85.1485 7.00104 93.507C7.00104 101.865 12.1541 108.641 18.5108 108.641Z" stroke="black" stroke-width="0.31795" stroke-miterlimit="10"/>
<path d="M18.5108 108.641C20.8639 108.641 22.7714 101.865 22.7714 93.507C22.7714 85.1485 20.8639 78.3726 18.5108 78.3726C16.1578 78.3726 14.2503 85.1485 14.2503 93.507C14.2503 101.865 16.1578 108.641 18.5108 108.641Z" stroke="black" stroke-width="0.31795" stroke-miterlimit="10"/>
<path d="M18.5108 121.423C26.8693 121.423 33.6452 116.697 33.6452 110.867C33.6452 105.037 26.8693 100.311 18.5108 100.311C10.1523 100.311 3.3764 105.037 3.3764 110.867C3.3764 116.697 10.1523 121.423 18.5108 121.423Z" stroke="black" stroke-width="0.31795" stroke-miterlimit="10"/>
<path d="M18.5108 87.0208C26.8693 87.0208 33.6452 82.2947 33.6452 76.4649C33.6452 70.635 26.8693 65.9089 18.5108 65.9089C10.1523 65.9089 3.3764 70.635 3.3764 76.4649C3.3764 82.2947 10.1523 87.0208 18.5108 87.0208Z" stroke="black" stroke-width="0.31795" stroke-miterlimit="10"/>
<path d="M1.08722 94.3337H35.1714" stroke="black" stroke-width="0.31795" stroke-miterlimit="10"/>
<path d="M196.563 45.3694C196.118 45.433 195.673 45.6873 195.355 46.0689C195.037 46.4504 194.909 46.9591 195.037 47.4043" fill="white"/>
<path d="M196.563 45.3694C196.118 45.433 195.673 45.6873 195.355 46.0689C195.037 46.4504 194.909 46.9591 195.037 47.4043" stroke="#222221" stroke-width="0.31795" stroke-miterlimit="10"/>
<path d="M208.391 105.144C208.136 105.08 207.945 105.017 207.691 104.89C207.055 104.572 206.674 104.126 205.911 104.126C205.465 104.126 204.957 104.508 205.02 104.953C205.02 105.144 205.147 105.335 205.275 105.462C205.847 106.034 206.61 106.416 207.182 106.988C207.5 107.306 207.691 107.688 208.009 108.005C209.472 109.341 211.506 108.133 212.778 107.115C212.905 106.988 213.096 106.861 213.096 106.606C213.096 106.479 213.033 106.352 212.969 106.225C212.651 105.78 212.079 105.525 211.57 105.462C211.061 105.335 210.489 105.335 209.917 105.335C209.535 105.398 208.963 105.335 208.391 105.144Z" fill="white" stroke="#222221" stroke-width="0.31795" stroke-miterlimit="10"/>
<path d="M149.125 44.9877C148.934 41.6175 148.87 38.3108 148.743 34.8769C148.87 31.5702 150.46 28.5179 151.096 25.2748C151.16 24.9569 151.223 24.6389 151.032 24.321C150.905 24.003 150.396 23.8123 150.142 24.0666C149.697 24.9569 149.252 26.3559 148.044 26.6102C147.344 24.1302 150.015 21.2687 148.362 19.1702C147.09 17.5804 144.355 18.1528 143.211 19.6789C142.066 21.2051 142.066 23.24 141.939 25.1477C141.557 31.4431 140.222 38.3108 138.696 44.9877H149.125Z" fill="white" stroke="#222221" stroke-width="0.31795" stroke-miterlimit="10"/>
<path d="M164.831 1.42871H125.406V26.2288H164.831V1.42871Z" fill="#FCA351" stroke="black" stroke-width="0.31795" stroke-miterlimit="10"/>
<path d="M164.831 1.42871C164.831 1.42871 146.581 12.6841 145.119 13.8288L125.406 1.42871" stroke="black" stroke-width="0.31795" stroke-miterlimit="10"/>
<path d="M148.743 34.8771C148.807 33.033 149.315 31.3161 149.888 29.5992C150.142 28.7089 150.46 27.8822 150.714 26.992C150.842 26.6104 150.969 26.2925 151.032 25.9109C151.096 25.5294 151.16 25.0843 151.35 24.7663C151.414 24.6391 151.478 24.5755 151.541 24.4484C151.605 24.3212 151.605 24.194 151.541 24.0668C151.414 23.8761 151.16 23.8761 150.969 23.9396C150.651 24.0032 150.396 24.2576 150.142 24.4484C149.506 25.2114 149.315 26.3561 148.107 26.6104" fill="white"/>
<path d="M148.743 34.8771C148.807 33.033 149.315 31.3161 149.888 29.5992C150.142 28.7089 150.46 27.8822 150.714 26.992C150.842 26.6104 150.969 26.2925 151.032 25.9109C151.096 25.5294 151.16 25.0843 151.35 24.7663C151.414 24.6391 151.478 24.5755 151.541 24.4484C151.605 24.3212 151.605 24.194 151.541 24.0668C151.414 23.8761 151.16 23.8761 150.969 23.9396C150.651 24.0032 150.396 24.2576 150.142 24.4484C149.506 25.2114 149.315 26.3561 148.107 26.6104" stroke="#222221" stroke-width="0.31795" stroke-miterlimit="10"/>
<path d="M162.542 243.77C162.479 244.024 162.351 244.279 162.161 244.47C161.97 244.66 161.588 244.788 161.334 244.851C158.727 245.423 156.056 245.932 153.385 246.25C154.148 240.336 153.894 234.232 155.102 228.381C155.611 225.965 156.438 223.485 158.345 221.895C160.317 220.305 163.242 220.115 165.404 221.323C169.283 223.549 167.057 227.555 166.23 230.734C165.149 235.185 163.878 239.51 162.542 243.77Z" fill="white" stroke="#222221" stroke-width="0.31795" stroke-miterlimit="10"/>
<path d="M163.305 243.643C161.97 243.897 160.634 243.961 159.363 243.897C157.391 243.834 155.357 243.516 153.512 242.625C152.876 243.007 152.177 243.77 151.414 244.088C148.87 245.169 146.327 246.314 143.783 247.395C141.875 248.221 139.904 249.048 138.251 250.32C137.869 250.638 137.424 250.956 137.297 251.464C136.788 253.563 141.939 252.927 143.02 252.927C145.818 252.927 148.552 252.609 151.35 252.609C153.703 252.609 156.056 252.673 158.409 252.546C159.808 252.482 162.033 253.118 163.051 252.037C163.878 251.21 163.814 249.43 163.56 248.412C163.242 246.822 163.242 245.169 163.305 243.643Z" fill="#161111"/>
<path d="M196.245 244.851C196.245 245.106 196.308 245.36 196.499 245.551C196.69 245.742 197.008 245.805 197.262 245.869C199.806 246.441 202.35 246.823 204.957 247.141C205.402 240.4 205.847 233.087 205.593 227.11C205.529 226.156 205.084 225.202 204.448 224.503C203.431 223.294 201.586 222.786 199.742 223.04C198.28 223.231 195.355 224.248 194.655 225.647C193.956 227.173 194.846 230.48 194.973 232.006C195.291 236.267 195.736 240.591 196.245 244.851Z" fill="white" stroke="#222221" stroke-width="0.31795" stroke-miterlimit="10"/>
<path d="M195.291 53.3182C195.227 53.5725 195.227 53.7633 195.164 54.0177C194.592 57.6423 195.99 61.3941 195.227 65.0823C194.719 67.6895 192.493 72.9675 189.25 73.2854C188.423 73.349 187.597 72.268 187.151 71.6957C185.625 69.8516 184.417 67.6895 184.163 65.3367C184.036 64.1921 184.163 63.0475 184.226 61.9028C184.354 60.2495 184.481 58.5962 184.671 56.9428C184.735 56.1797 184.799 55.4167 184.989 54.6536C185.307 53.2546 185.88 51.9828 186.834 50.9018C188.741 48.7397 191.539 48.5489 194.274 48.4854C194.592 48.4854 194.909 48.4853 195.164 48.6761C195.673 48.9941 195.673 49.6936 195.609 50.3295C195.545 51.3469 195.418 52.3007 195.291 53.3182Z" fill="white" stroke="#222221" stroke-width="0.31795" stroke-miterlimit="10"/>
<path d="M188.932 56.9429C190.649 57.4516 195.1 58.1511 195.1 58.1511C195.037 57.2609 194.91 55.6711 194.973 54.7808C194.973 54.6537 195.1 53.8906 195.164 53.2547C195.227 52.6824 195.355 52.1737 195.355 52.1737C194.973 52.0465 194.528 51.8557 194.21 51.6013C194.019 51.4106 193.892 51.2198 193.701 51.029C192.493 49.8844 190.649 49.6301 189.123 50.266C188.233 50.6475 187.469 51.2198 186.897 51.9829C186.516 52.428 186.261 52.9367 186.007 53.4455C185.753 54.0178 185.435 54.7173 185.371 55.2896C185.371 55.2896 185.371 55.4803 185.307 55.7347C186.643 56.1798 187.787 56.5614 188.932 56.9429Z" fill="#161111"/>
<path d="M184.799 39.0104C185.816 39.1376 186.834 39.2648 187.851 39.5192C188.741 39.7735 189.504 40.2187 190.395 40.4094C191.921 40.7274 194.274 41.1089 195.355 42.2535C196.563 43.4617 196.499 45.3059 196.308 46.8956C196.181 48.4218 195.927 49.9479 195.545 51.4105C194.973 53.8269 193.574 55.7346 191.285 56.7521C189.695 57.4515 187.787 57.6423 186.134 57.2608C183.59 56.6249 182.191 54.5264 181.81 51.5377C181.746 51.0289 181.683 49.2484 181.683 48.7397C181.683 47.15 182.001 45.433 182.191 43.8433C182.382 42.3807 182.509 40.9181 183.145 39.5828C183.209 39.392 183.336 39.2012 183.463 39.1376C183.718 38.9469 184.036 38.9469 184.29 39.0104C184.481 39.0104 184.608 39.0104 184.799 39.0104Z" fill="white" stroke="#222221" stroke-width="0.31795" stroke-miterlimit="10"/>
<path d="M183.463 34.8135C184.29 34.4955 185.244 34.4955 186.134 34.5591C187.724 34.6863 189.314 34.7499 190.967 34.8771C192.302 34.9406 193.638 35.0042 194.909 35.5765C196.436 36.3396 197.771 37.675 198.28 39.3284C198.661 40.5366 198.598 41.8084 198.471 43.0802C198.343 44.2884 198.153 45.433 197.898 46.5776C197.644 47.6586 197.135 48.9304 195.927 49.1212C194.274 49.4392 193.892 47.4043 193.956 46.2597C194.019 45.6238 194.019 44.9879 194.083 44.352C194.083 43.9704 194.146 43.5253 194.019 43.1438C193.828 42.5079 193.256 42.0627 192.62 41.8084C191.984 41.554 191.348 41.554 190.649 41.4904C188.55 41.3632 186.452 41.2996 184.417 40.8545C183.781 40.6637 183.145 40.473 182.573 40.0914C181.238 39.1376 181.556 36.4668 182.573 35.3222C182.827 35.1314 183.145 34.9406 183.463 34.8135Z" fill="#161111"/>
<path d="M181.492 47.1501C181.492 47.2773 181.556 47.4045 181.619 47.4681C182.319 46.5778 182.191 44.6701 182.382 43.5891C182.637 42.3173 183.018 40.9819 183.972 40.0916C184.226 39.8373 184.544 39.5829 184.735 39.265C184.926 38.947 185.053 38.5019 184.799 38.1839C184.544 37.866 184.036 37.8024 183.654 37.9296C180.983 38.5655 181.174 41.9357 181.301 44.0978C181.365 45.1152 181.301 46.2599 181.492 47.1501Z" fill="#161111"/>
<path d="M194.337 50.393C194.91 50.6474 195.609 50.711 196.245 50.5202C197.644 50.0115 198.343 47.9766 197.39 46.832C196.944 46.2597 196.181 45.9417 195.482 46.0053C194.782 46.0689 194.083 46.5141 193.701 47.15" fill="white"/>
<path d="M194.337 50.393C194.91 50.6474 195.609 50.711 196.245 50.5202C197.644 50.0115 198.343 47.9766 197.39 46.832C196.944 46.2597 196.181 45.9417 195.482 46.0053C194.782 46.0689 194.083 46.5141 193.701 47.15" stroke="#222221" stroke-width="0.31795" stroke-miterlimit="10"/>
<path d="M210.998 164.919C211.316 154.426 211.506 144.252 209.853 133.823C209.154 129.372 205.465 113.919 199.806 113.093C199.488 113.029 199.17 113.093 198.979 113.156C198.661 111.567 198.089 110.104 197.262 108.769C194.846 104.826 190.395 101.964 185.816 100.883C180.792 99.6752 174.624 100.375 172.399 106.161C171.254 109.15 171.508 112.139 170.173 115.064C166.358 123.204 165.849 131.279 164.704 140.182C163.369 150.738 161.97 161.294 160.507 171.85C157.773 191.881 154.784 211.975 151.668 231.942C153.767 232.451 155.865 232.833 157.964 233.087C161.652 233.532 165.404 233.405 169.092 232.96C172.717 214.773 176.532 196.65 180.665 178.527C182.7 169.497 184.417 160.658 186.579 152.073C188.042 166.127 189.25 180.18 190.14 194.234C190.585 201.419 190.903 208.605 191.158 215.791C191.348 221.768 192.429 228.254 192.239 234.041C196.499 234.804 201.523 234.104 205.911 233.786C206.419 233.723 210.107 233.278 210.171 232.769C211.316 220.178 211.252 210.004 211.506 196.777C211.697 186.921 210.68 174.648 210.998 164.919Z" fill="#7696EA" stroke="black" stroke-width="0.31795" stroke-miterlimit="10"/>
<path d="M206.737 226.601C206.737 222.531 206.737 218.525 206.737 214.455C206.737 206.379 206.61 198.24 206.546 190.164C206.419 182.088 206.229 173.948 205.974 165.872C205.72 158.051 205.529 150.166 205.084 142.28C204.639 134.332 203.812 125.747 199.742 118.689C199.679 118.498 199.361 118.625 199.424 118.816C201.586 125.811 202.858 132.996 203.303 140.309C203.748 148.067 203.939 155.889 204.194 163.647C204.639 179.671 204.893 195.632 204.957 211.657C204.957 216.108 204.957 220.623 204.957 225.075C204.957 227.364 204.957 229.653 204.893 231.942C204.893 234.168 204.702 236.457 205.02 238.683C205.084 239.319 206.229 239.319 206.356 238.683C206.674 236.648 206.61 234.613 206.61 232.578C206.737 230.543 206.737 228.572 206.737 226.601Z" fill="black"/>
<path d="M184.608 51.0925C184.671 52.5551 185.752 53.6997 187.088 53.7633C188.487 53.8269 189.631 52.6823 189.759 51.2833L184.608 51.0925Z" fill="white" stroke="#222221" stroke-width="0.31795" stroke-miterlimit="10"/>
<path d="M166.739 107.179C165.976 112.966 165.213 118.816 164.323 124.603C165.849 124.603 167.375 125.429 168.901 125.747C170.745 126.192 172.653 126.51 174.561 126.765C178.503 127.337 182.446 127.655 186.388 127.782C188.296 127.846 209.599 127.083 209.535 126.701C209.154 124.221 208.708 121.678 208.581 119.198C208.391 113.538 208.136 107.878 207.945 102.219C207.564 92.2989 210.235 82.6333 209.853 72.7132C209.789 71.6322 206.737 70.2332 206.737 69.1522C206.61 66.4814 205.465 64.5101 203.431 62.8568C203.176 62.666 202.858 62.4116 202.54 62.2845C202.032 62.0937 201.459 62.0301 200.887 62.0301C199.488 61.9665 197.962 61.8393 196.626 61.7757C196.118 61.7757 195.927 61.6486 195.482 61.3942C195.545 63.3019 194.591 65.464 193.065 66.6086C190.84 68.2619 187.787 67.2445 186.07 65.4004C185.625 64.9552 185.244 64.3829 184.926 63.8106C184.608 63.2383 184.29 62.6024 184.226 61.9665C177.677 63.747 169.791 63.8742 163.051 63.5563C159.808 63.3655 155.293 62.984 153.194 60.5039C148.807 55.3532 150.269 41.4905 150.905 35.3223C146.454 35.4495 142.956 35.2587 138.569 34.75C137.043 43.8434 135.453 56.1162 136.47 65.2732C137.933 79.263 158.727 82.7604 169.728 81.2343C169.919 83.3963 169.601 85.7492 169.346 87.9112C169.092 90.0733 168.647 92.2353 168.392 94.461C167.82 98.6579 167.311 102.918 166.739 107.179Z" fill="#007CFF" stroke="black" stroke-width="0.31795" stroke-miterlimit="10"/>
<path d="M194.846 251.528V251.592C194.909 251.846 194.909 252.037 195.1 252.164C195.227 252.228 195.418 252.291 195.545 252.291C201.777 252.546 207.882 252.8 214.05 252.991C215.449 253.054 221.363 253.054 221.744 251.019C221.808 250.574 221.554 250.065 221.236 249.748C220.854 249.43 220.409 249.239 219.964 249.048C217.166 247.967 213.986 247.331 211.316 245.996C210.298 245.487 209.408 244.788 208.391 244.279C207.882 244.024 205.656 242.308 205.147 242.435C202.095 243.134 198.598 243.643 195.482 243.071C194.655 245.869 194.401 248.73 194.846 251.528Z" fill="#161111"/>
<path d="M208.772 106.479C206.229 107.56 203.367 107.497 200.633 107.751C200.315 107.815 199.997 108.006 199.806 108.26C199.615 108.514 199.615 108.769 199.679 109.023C199.679 109.087 199.933 109.595 200.06 109.468C199.742 109.722 199.488 110.104 199.552 110.549C199.552 110.931 199.933 111.376 200.315 111.312C200.187 111.439 200.187 111.694 200.251 111.821C200.315 112.012 200.505 112.075 200.633 112.202C201.078 112.457 201.523 112.584 201.968 112.584C201.268 112.584 201.904 113.538 202.159 113.729C202.731 114.047 203.685 114.11 204.321 114.174C205.911 114.301 207.564 114.237 209.154 113.856C211.57 113.284 213.859 112.012 216.212 111.376C217.357 111.058 218.565 110.867 219.71 110.676C220.663 110.549 221.681 110.613 222.635 110.231C224.415 109.532 226.259 109.214 227.595 107.751C228.803 106.416 229.184 104.127 227.976 102.791C227.086 101.774 225.56 101.456 224.161 101.71C224.034 101.71 223.907 101.774 223.843 101.774C222.38 102.092 221.109 102.918 219.773 103.618C216.912 105.017 213.541 105.526 210.362 105.526" fill="white"/>
<path d="M208.772 106.479C206.229 107.56 203.367 107.497 200.633 107.751C200.315 107.815 199.997 108.006 199.806 108.26C199.615 108.514 199.615 108.769 199.679 109.023C199.679 109.087 199.933 109.595 200.06 109.468C199.742 109.722 199.488 110.104 199.552 110.549C199.552 110.931 199.933 111.376 200.315 111.312C200.187 111.439 200.187 111.694 200.251 111.821C200.315 112.012 200.505 112.075 200.633 112.202C201.078 112.457 201.523 112.584 201.968 112.584C201.268 112.584 201.904 113.538 202.159 113.729C202.731 114.047 203.685 114.11 204.321 114.174C205.911 114.301 207.564 114.237 209.154 113.856C211.57 113.284 213.859 112.012 216.212 111.376C217.357 111.058 218.565 110.867 219.71 110.676C220.663 110.549 221.681 110.613 222.635 110.231C224.415 109.532 226.259 109.214 227.595 107.751C228.803 106.416 229.184 104.127 227.976 102.791C227.086 101.774 225.56 101.456 224.161 101.71C224.034 101.71 223.907 101.774 223.843 101.774C222.38 102.092 221.109 102.918 219.773 103.618C216.912 105.017 213.541 105.526 210.362 105.526" stroke="#222221" stroke-width="0.31795" stroke-miterlimit="10"/>
<path d="M203.176 78.3725C206.992 78.8176 217.993 81.234 222.38 84.6679C225.305 86.9571 227.34 90.7089 226.45 94.3336C225.814 96.6864 224.034 98.5941 221.935 99.8659C219.837 101.138 217.42 101.774 215.067 102.41C216.53 106.098 217.293 110.104 217.357 114.046C217.357 114.428 227.404 111.694 228.294 111.312C231.537 110.04 234.081 108.323 236.688 106.098C241.648 101.964 243.937 95.6054 242.856 89.2464C240.758 76.8463 228.612 68.4525 217.102 64.7642C210.489 62.6658 203.558 61.9663 196.69 61.7119" fill="#007CFF"/>
<path d="M203.176 78.3725C206.992 78.8176 217.993 81.234 222.38 84.6679C225.305 86.9571 227.34 90.7089 226.45 94.3336C225.814 96.6864 224.034 98.5941 221.935 99.8659C219.837 101.138 217.42 101.774 215.067 102.41C216.53 106.098 217.293 110.104 217.357 114.046C217.357 114.428 227.404 111.694 228.294 111.312C231.537 110.04 234.081 108.323 236.688 106.098C241.648 101.964 243.937 95.6054 242.856 89.2464C240.758 76.8463 228.612 68.4525 217.102 64.7642C210.489 62.6658 203.558 61.9663 196.69 61.7119" stroke="black" stroke-width="0.31795" stroke-miterlimit="10"/>
<path d="M201.714 112.52C203.749 112.711 205.593 112.584 208.2 111.948L201.714 112.52Z" fill="white"/>
<path d="M201.714 112.52C203.749 112.711 205.593 112.584 208.2 111.948" stroke="#222221" stroke-width="0.31795" stroke-miterlimit="10"/>
<path d="M200.315 111.312C203.049 111.249 205.402 110.931 207.882 110.231L200.315 111.312Z" fill="white"/>
<path d="M200.315 111.312C203.049 111.249 205.402 110.931 207.882 110.231" stroke="#222221" stroke-width="0.31795" stroke-miterlimit="10"/>
<path d="M200.06 109.468C202.731 109.468 205.465 108.959 208.073 108.26L200.06 109.468Z" fill="white"/>
<path d="M200.06 109.468C202.731 109.468 205.465 108.959 208.073 108.26" stroke="#222221" stroke-width="0.31795" stroke-miterlimit="10"/>
<path d="M186.579 152.073C186.452 145.269 186.261 138.402 185.498 131.025" stroke="#131834" stroke-width="0.31795" stroke-miterlimit="10"/>
<path d="M238.596 93.5705C238.723 95.0331 239.804 96.4321 241.203 96.8136C242.729 97.1952 244.319 96.4321 245.527 95.4146C246.227 94.7787 246.799 94.0157 247.117 93.1254C248.897 87.5931 238.023 86.7664 238.596 93.5705Z" fill="#161111"/>
<path d="M139.904 65.8452C141.621 66.0996 143.084 67.435 143.465 69.0883C143.847 70.7416 142.956 72.6493 141.43 73.3488C140.858 73.6032 140.222 73.7304 139.65 73.794C138.378 73.8576 137.043 73.6032 136.089 72.7129C132.973 69.8514 136.28 65.3365 139.904 65.8452Z" fill="#161111"/>
<path d="M192.62 83.7778C192.557 84.8588 192.62 86.1942 192.684 87.2753C192.747 90.1368 194.528 93.6978 198.025 93.0619C198.979 92.8712 199.806 92.2353 200.315 91.4086C200.823 90.5819 201.078 89.6281 201.268 88.6742C201.586 87.0845 201.523 85.4311 201.714 83.8414C200.823 83.7778 192.62 83.6506 192.62 83.7778Z" fill="#161111"/>
<path d="M185.943 145.714C185.625 147.559 185.371 149.403 185.117 151.247C184.862 153.155 184.799 155.126 184.544 157.033C184.417 157.86 184.354 158.623 184.29 159.45C184.29 160.022 184.29 160.595 184.29 161.167C184.799 161.23 185.053 158.814 185.18 158.305C185.498 157.415 185.562 156.398 185.816 155.507C186.007 154.808 186.325 152.773 186.579 152.073C186.388 149.466 186.516 146.032 186.388 143.044C186.261 143.934 186.07 144.824 185.943 145.714Z" fill="#161111"/>
<path d="M169.855 82.1245C169.919 80.8527 169.982 79.5809 170.046 78.3091L169.855 82.1245Z" fill="#007CFF"/>
<path d="M169.855 82.1245C169.919 80.8527 169.982 79.5809 170.046 78.3091" stroke="black" stroke-width="0.31795" stroke-miterlimit="10"/>
<path d="M0.00616455 252.673H262.124" stroke="black" stroke-width="0.31795" stroke-miterlimit="10"/>
</svg>
